<svg width="49" height="56" viewBox="0 0 49 56" fill="none" xmlns="http://www.w3.org/2000/svg">
<rect width="49" height="56" rx="9" fill="#ECFBFB"/>
<rect x="12" y="11" width="25" height="33" rx="4" fill="#2E5555"/>
<path d="M19 29.8571C19 29.6488 19.0828 29.4489 19.2301 29.3016C19.3775 29.1542 19.5773 29.0714 19.7857 29.0714H21.3571C21.5655 29.0714 21.7654 29.1542 21.9127 29.3016C22.0601 29.4489 22.1429 29.6488 22.1429 29.8571V32.2143C22.1429 32.4227 22.0601 32.6225 21.9127 32.7699C21.7654 32.9172 21.5655 33 21.3571 33H19.7857C19.5773 33 19.3775 32.9172 19.2301 32.7699C19.0828 32.6225 19 32.4227 19 32.2143V29.8571ZM22.9286 26.7143C22.9286 26.5059 23.0114 26.3061 23.1587 26.1587C23.3061 26.0114 23.5059 25.9286 23.7143 25.9286H25.2857C25.4941 25.9286 25.6939 26.0114 25.8413 26.1587C25.9886 26.3061 26.0714 26.5059 26.0714 26.7143V32.2143C26.0714 32.4227 25.9886 32.6225 25.8413 32.7699C25.6939 32.9172 25.4941 33 25.2857 33H23.7143C23.5059 33 23.3061 32.9172 23.1587 32.7699C23.0114 32.6225 22.9286 32.4227 22.9286 32.2143V26.7143ZM26.8571 22.7857C26.8571 22.5773 26.9399 22.3775 27.0873 22.2301C27.2346 22.0828 27.4345 22 27.6429 22H29.2143C29.4227 22 29.6225 22.0828 29.7699 22.2301C29.9172 22.3775 30 22.5773 30 22.7857V32.2143C30 32.4227 29.9172 32.6225 29.7699 32.7699C29.6225 32.9172 29.4227 33 29.2143 33H27.6429C27.4345 33 27.2346 32.9172 27.0873 32.7699C26.9399 32.6225 26.8571 32.4227 26.8571 32.2143V22.7857Z" fill="#ECFBFB"/>
</svg>
