<svg width="49" height="56" viewBox="0 0 49 56" fill="none" xmlns="http://www.w3.org/2000/svg">
<rect width="49" height="56" rx="9" fill="#ECFBFB"/>
<path d="M42 27.4843L38.1182 23.1L38.6591 17.3014L32.9159 16.0129L29.9091 11L24.5 13.2943L19.0909 11L16.0841 16.0129L10.3409 17.2857L10.8818 23.1L7 27.4843L10.8818 31.8686L10.3409 37.6829L16.0841 38.9714L19.0909 44L24.5 41.69L29.9091 43.9843L32.9159 38.9714L38.6591 37.6829L38.1182 31.8843L42 27.4843ZM35.7159 29.81L34.825 30.8314L34.9523 32.1671L35.2386 35.2314L30.8795 36.2057L30.1795 37.3686L28.6045 40.0086L25.7727 38.7986L24.5 38.2643L23.2432 38.7986L20.4114 40.0086L18.8364 37.3843L18.1364 36.2214L13.7773 35.2471L14.0636 32.1671L14.1909 30.8314L13.3 29.81L11.2477 27.5L13.3 25.1743L14.1909 24.1529L14.0477 22.8014L13.7614 19.7529L18.1205 18.7786L18.8205 17.6157L20.3955 14.9757L23.2273 16.1857L24.5 16.72L25.7568 16.1857L28.5886 14.9757L30.1636 17.6157L30.8636 18.7786L35.2227 19.7529L34.9364 22.8171L34.8091 24.1529L35.7 25.1743L37.7523 27.4843L35.7159 29.81Z" fill="#2E5555"/>
<path d="M21.4614 30.25L17.7705 26.5886L15.4159 28.93L21.4614 34.9171L33.1386 23.3514L30.7841 21.01L21.4614 30.25Z" fill="#2E5555"/>
</svg>
