<svg width="38" height="29" viewBox="0 0 38 29" fill="none" xmlns="http://www.w3.org/2000/svg">
<path d="M34.4375 28.5H3.5625C1.59496 28.5 0 26.905 0 24.9375V3.5625C0 1.59496 1.59496 0 3.5625 0H34.4375C36.405 0 38 1.59496 38 3.5625V24.9375C38 26.905 36.405 28.5 34.4375 28.5ZM8.3125 4.15625C6.01706 4.15625 4.15625 6.01706 4.15625 8.3125C4.15625 10.6079 6.01706 12.4687 8.3125 12.4687C10.6079 12.4687 12.4687 10.6079 12.4687 8.3125C12.4687 6.01706 10.6079 4.15625 8.3125 4.15625ZM4.75 23.75H33.25V15.4375L26.7547 8.94225C26.407 8.59446 25.843 8.59446 25.4952 8.94225L15.4375 19L11.3172 14.8797C10.9695 14.532 10.4055 14.532 10.0577 14.8797L4.75 20.1875V23.75Z" fill="#A9ABAC"/>
</svg>
