<svg width="37" height="50" viewBox="0 0 37 50" fill="none" xmlns="http://www.w3.org/2000/svg">
<path d="M17.5268 24.6763C17.0451 23.1346 17.0547 20.1573 17.3341 20.1573C18.1435 20.1573 18.0664 23.7128 17.5268 24.6763ZM17.363 29.2242C16.6211 31.1706 15.6961 33.3964 14.6266 35.2656C16.3898 34.5911 18.3844 33.6083 20.6872 33.1555C19.4635 32.2305 18.288 30.9008 17.363 29.2242ZM8.29609 41.2492C8.29609 41.3263 9.56797 40.7289 11.6589 37.3758C11.0133 37.9828 8.85495 39.7365 8.29609 41.2492ZM23.8958 15.4167H37V47.0208C37 48.3023 35.969 49.3333 34.6875 49.3333H2.3125C1.03099 49.3333 0 48.3023 0 47.0208V2.3125C0 1.03099 1.03099 0 2.3125 0H21.5833V13.1042C21.5833 14.376 22.624 15.4167 23.8958 15.4167ZM23.125 31.9703C21.1979 30.7948 19.9164 29.176 19.0107 26.7865C19.4443 25.0039 20.1284 22.2964 19.6081 20.6005C19.1552 17.7677 15.5227 18.0471 15.0023 19.9453C14.5206 21.7086 14.9638 24.1945 15.7828 27.3646C14.6651 30.024 13.0174 33.5891 11.8516 35.6318C11.8419 35.6318 11.8419 35.6414 11.8323 35.6414C9.22109 36.9807 4.74063 39.9292 6.58099 42.1935C7.12057 42.8583 8.12266 43.157 8.6526 43.157C10.3773 43.157 12.0924 41.4227 14.5398 37.2023C17.0258 36.3833 19.7526 35.362 22.1518 34.9669C24.2427 36.1039 26.6901 36.8458 28.3185 36.8458C31.132 36.8458 31.3247 33.7625 30.2167 32.6641C28.8773 31.3536 24.9846 31.7294 23.125 31.9703ZM36.3255 10.1172L26.8828 0.674479C26.4492 0.240885 25.8615 0 25.2448 0H24.6667V12.3333H37V11.7456C37 11.1385 36.7591 10.5508 36.3255 10.1172ZM29.1857 34.7164C29.5807 34.4562 28.9448 33.5698 25.0617 33.8492C28.6365 35.3716 29.1857 34.7164 29.1857 34.7164Z" fill="#A9ABAC"/>
</svg>
