<svg width="30" height="30" viewBox="0 0 30 30" fill="none" xmlns="http://www.w3.org/2000/svg">
<path d="M12.5243 8.64359L12.521 8.63318L12.5176 8.62281C12.0741 7.2803 11.8333 5.83909 11.8333 4.33333C11.8333 2.77157 10.5618 1.5 9 1.5H4.33333C2.77157 1.5 1.5 2.77157 1.5 4.33333C1.5 17.6818 12.3182 28.5 25.6667 28.5C27.2284 28.5 28.5 27.2284 28.5 25.6667V21.0133C28.5 19.4516 27.2284 18.18 25.6667 18.18C24.1759 18.18 22.7236 17.9398 21.3834 17.4978C20.3757 17.1564 19.2473 17.4181 18.486 18.1793L16.3483 20.317C13.5944 18.6992 11.2896 16.4009 9.68117 13.6535L11.8207 11.514C12.6064 10.7282 12.8311 9.61969 12.5243 8.64359Z" fill="white" stroke="#3EB3B3" stroke-width="3"/>
</svg>
