<svg width="204" height="36" viewBox="0 0 204 36" fill="none" xmlns="http://www.w3.org/2000/svg">
<path d="M19.5078 26C19.5078 25.4219 19.4219 24.9062 19.25 24.4531C19.0781 23.9844 18.7656 23.5547 18.3125 23.1641C17.8594 22.7734 17.2188 22.3828 16.3906 21.9922C15.5625 21.5859 14.4766 21.1719 13.1328 20.75C11.6016 20.25 10.1406 19.6875 8.75 19.0625C7.375 18.4219 6.14844 17.6797 5.07031 16.8359C3.99219 15.9922 3.14062 15.0078 2.51562 13.8828C1.90625 12.7578 1.60156 11.4453 1.60156 9.94531C1.60156 8.49219 1.92188 7.17969 2.5625 6.00781C3.20312 4.83594 4.10156 3.83594 5.25781 3.00781C6.41406 2.16406 7.77344 1.52344 9.33594 1.08594C10.8984 0.632813 12.6172 0.40625 14.4922 0.40625C16.9922 0.40625 19.1875 0.851562 21.0781 1.74219C22.9844 2.61719 24.4688 3.85156 25.5312 5.44531C26.5938 7.02344 27.125 8.85938 27.125 10.9531H19.5312C19.5312 10.0312 19.3359 9.21875 18.9453 8.51562C18.5703 7.79688 17.9922 7.23438 17.2109 6.82812C16.4453 6.42188 15.4844 6.21875 14.3281 6.21875C13.2031 6.21875 12.2578 6.39062 11.4922 6.73438C10.7422 7.0625 10.1719 7.51562 9.78125 8.09375C9.40625 8.67188 9.21875 9.30469 9.21875 9.99219C9.21875 10.5391 9.35938 11.0391 9.64062 11.4922C9.9375 11.9297 10.3594 12.3438 10.9062 12.7344C11.4688 13.1094 12.1562 13.4688 12.9688 13.8125C13.7812 14.1562 14.7109 14.4844 15.7578 14.7969C17.5859 15.375 19.2031 16.0156 20.6094 16.7188C22.0312 17.4219 23.2266 18.2188 24.1953 19.1094C25.1641 20 25.8906 21.0078 26.375 22.1328C26.875 23.2578 27.125 24.5312 27.125 25.9531C27.125 27.4688 26.8281 28.8125 26.2344 29.9844C25.6562 31.1562 24.8125 32.1562 23.7031 32.9844C22.6094 33.7969 21.2969 34.4141 19.7656 34.8359C18.2344 35.2578 16.5234 35.4688 14.6328 35.4688C12.9141 35.4688 11.2188 35.25 9.54688 34.8125C7.875 34.3594 6.35938 33.6719 5 32.75C3.65625 31.8281 2.57812 30.6562 1.76562 29.2344C0.96875 27.7969 0.570312 26.0938 0.570312 24.125H8.21094C8.21094 25.1562 8.35938 26.0312 8.65625 26.75C8.95312 27.4531 9.375 28.0234 9.92188 28.4609C10.4844 28.8984 11.1641 29.2109 11.9609 29.3984C12.7578 29.5859 13.6484 29.6797 14.6328 29.6797C15.7734 29.6797 16.6953 29.5234 17.3984 29.2109C18.1172 28.8828 18.6484 28.4375 18.9922 27.875C19.3359 27.3125 19.5078 26.6875 19.5078 26ZM49.4797 28.9531V18.0781C49.4797 17.3125 49.3625 16.6562 49.1281 16.1094C48.8937 15.5625 48.5266 15.1328 48.0266 14.8203C47.5266 14.5078 46.8781 14.3516 46.0812 14.3516C45.4094 14.3516 44.8234 14.4688 44.3234 14.7031C43.8391 14.9375 43.4641 15.2734 43.1984 15.7109C42.9484 16.1484 42.8234 16.6875 42.8234 17.3281H35.5109C35.5109 16.1875 35.7687 15.125 36.2844 14.1406C36.8 13.1562 37.5344 12.2891 38.4875 11.5391C39.4562 10.7891 40.6125 10.2109 41.9562 9.80469C43.3 9.38281 44.8078 9.17188 46.4797 9.17188C48.4641 9.17188 50.2297 9.50781 51.7766 10.1797C53.3391 10.8359 54.5734 11.8281 55.4797 13.1562C56.3859 14.4688 56.8391 16.125 56.8391 18.125V28.7422C56.8391 30.2734 56.925 31.4766 57.0969 32.3516C57.2844 33.2109 57.55 33.9609 57.8937 34.6016V35H50.5109C50.1672 34.2656 49.9094 33.3594 49.7375 32.2812C49.5656 31.1875 49.4797 30.0781 49.4797 28.9531ZM50.3937 19.5312L50.4406 23.5625H46.8078C45.9953 23.5625 45.2922 23.6641 44.6984 23.8672C44.1203 24.0703 43.6516 24.3516 43.2922 24.7109C42.9328 25.0547 42.6672 25.4609 42.4953 25.9297C42.3391 26.3828 42.2609 26.8828 42.2609 27.4297C42.2609 27.9453 42.3859 28.4141 42.6359 28.8359C42.8859 29.2422 43.2297 29.5625 43.6672 29.7969C44.1047 30.0312 44.6125 30.1484 45.1906 30.1484C46.1437 30.1484 46.9562 29.9609 47.6281 29.5859C48.3156 29.2109 48.8469 28.7578 49.2219 28.2266C49.5969 27.6797 49.7844 27.1719 49.7844 26.7031L51.5422 29.75C51.2609 30.375 50.9172 31.0234 50.5109 31.6953C50.1047 32.3516 49.5891 32.9688 48.9641 33.5469C48.3391 34.1094 47.5812 34.5703 46.6906 34.9297C45.8156 35.2891 44.7609 35.4688 43.5266 35.4688C41.9328 35.4688 40.4875 35.1484 39.1906 34.5078C37.8937 33.8516 36.8547 32.9531 36.0734 31.8125C35.3078 30.6719 34.925 29.3594 34.925 27.875C34.925 26.5469 35.1672 25.3672 35.6516 24.3359C36.1359 23.3047 36.8625 22.4297 37.8312 21.7109C38.8156 20.9922 40.05 20.4531 41.5344 20.0938C43.0187 19.7188 44.7531 19.5312 46.7375 19.5312H50.3937ZM79.8734 28.9531V18.0781C79.8734 17.3125 79.7562 16.6562 79.5219 16.1094C79.2875 15.5625 78.9203 15.1328 78.4203 14.8203C77.9203 14.5078 77.2719 14.3516 76.475 14.3516C75.8031 14.3516 75.2172 14.4688 74.7172 14.7031C74.2328 14.9375 73.8578 15.2734 73.5922 15.7109C73.3422 16.1484 73.2172 16.6875 73.2172 17.3281H65.9047C65.9047 16.1875 66.1625 15.125 66.6781 14.1406C67.1937 13.1562 67.9281 12.2891 68.8812 11.5391C69.85 10.7891 71.0062 10.2109 72.35 9.80469C73.6937 9.38281 75.2016 9.17188 76.8734 9.17188C78.8578 9.17188 80.6234 9.50781 82.1703 10.1797C83.7328 10.8359 84.9672 11.8281 85.8734 13.1562C86.7797 14.4688 87.2328 16.125 87.2328 18.125V28.7422C87.2328 30.2734 87.3187 31.4766 87.4906 32.3516C87.6781 33.2109 87.9437 33.9609 88.2875 34.6016V35H80.9047C80.5609 34.2656 80.3031 33.3594 80.1312 32.2812C79.9594 31.1875 79.8734 30.0781 79.8734 28.9531ZM80.7875 19.5312L80.8344 23.5625H77.2016C76.3891 23.5625 75.6859 23.6641 75.0922 23.8672C74.5141 24.0703 74.0453 24.3516 73.6859 24.7109C73.3266 25.0547 73.0609 25.4609 72.8891 25.9297C72.7328 26.3828 72.6547 26.8828 72.6547 27.4297C72.6547 27.9453 72.7797 28.4141 73.0297 28.8359C73.2797 29.2422 73.6234 29.5625 74.0609 29.7969C74.4984 30.0312 75.0062 30.1484 75.5844 30.1484C76.5375 30.1484 77.35 29.9609 78.0219 29.5859C78.7094 29.2109 79.2406 28.7578 79.6156 28.2266C79.9906 27.6797 80.1781 27.1719 80.1781 26.7031L81.9359 29.75C81.6547 30.375 81.3109 31.0234 80.9047 31.6953C80.4984 32.3516 79.9828 32.9688 79.3578 33.5469C78.7328 34.1094 77.975 34.5703 77.0844 34.9297C76.2094 35.2891 75.1547 35.4688 73.9203 35.4688C72.3266 35.4688 70.8812 35.1484 69.5844 34.5078C68.2875 33.8516 67.2484 32.9531 66.4672 31.8125C65.7016 30.6719 65.3187 29.3594 65.3187 27.875C65.3187 26.5469 65.5609 25.3672 66.0453 24.3359C66.5297 23.3047 67.2562 22.4297 68.225 21.7109C69.2094 20.9922 70.4437 20.4531 71.9281 20.0938C73.4125 19.7188 75.1469 19.5312 77.1312 19.5312H80.7875ZM114.908 26C114.908 25.4219 114.822 24.9062 114.65 24.4531C114.478 23.9844 114.166 23.5547 113.713 23.1641C113.259 22.7734 112.619 22.3828 111.791 21.9922C110.963 21.5859 109.877 21.1719 108.533 20.75C107.002 20.25 105.541 19.6875 104.15 19.0625C102.775 18.4219 101.548 17.6797 100.47 16.8359C99.3922 15.9922 98.5406 15.0078 97.9156 13.8828C97.3063 12.7578 97.0016 11.4453 97.0016 9.94531C97.0016 8.49219 97.3219 7.17969 97.9625 6.00781C98.6031 4.83594 99.5016 3.83594 100.658 3.00781C101.814 2.16406 103.173 1.52344 104.736 1.08594C106.298 0.632813 108.017 0.40625 109.892 0.40625C112.392 0.40625 114.588 0.851562 116.478 1.74219C118.384 2.61719 119.869 3.85156 120.931 5.44531C121.994 7.02344 122.525 8.85938 122.525 10.9531H114.931C114.931 10.0312 114.736 9.21875 114.345 8.51562C113.97 7.79688 113.392 7.23438 112.611 6.82812C111.845 6.42188 110.884 6.21875 109.728 6.21875C108.603 6.21875 107.658 6.39062 106.892 6.73438C106.142 7.0625 105.572 7.51562 105.181 8.09375C104.806 8.67188 104.619 9.30469 104.619 9.99219C104.619 10.5391 104.759 11.0391 105.041 11.4922C105.338 11.9297 105.759 12.3438 106.306 12.7344C106.869 13.1094 107.556 13.4688 108.369 13.8125C109.181 14.1562 110.111 14.4844 111.158 14.7969C112.986 15.375 114.603 16.0156 116.009 16.7188C117.431 17.4219 118.627 18.2188 119.595 19.1094C120.564 20 121.291 21.0078 121.775 22.1328C122.275 23.2578 122.525 24.5312 122.525 25.9531C122.525 27.4688 122.228 28.8125 121.634 29.9844C121.056 31.1562 120.213 32.1562 119.103 32.9844C118.009 33.7969 116.697 34.4141 115.166 34.8359C113.634 35.2578 111.923 35.4688 110.033 35.4688C108.314 35.4688 106.619 35.25 104.947 34.8125C103.275 34.3594 101.759 33.6719 100.4 32.75C99.0563 31.8281 97.9781 30.6562 97.1656 29.2344C96.3688 27.7969 95.9703 26.0938 95.9703 24.125H103.611C103.611 25.1562 103.759 26.0312 104.056 26.75C104.353 27.4531 104.775 28.0234 105.322 28.4609C105.884 28.8984 106.564 29.2109 107.361 29.3984C108.158 29.5859 109.048 29.6797 110.033 29.6797C111.173 29.6797 112.095 29.5234 112.798 29.2109C113.517 28.8828 114.048 28.4375 114.392 27.875C114.736 27.3125 114.908 26.6875 114.908 26ZM131.848 31.5312C131.848 30.4688 132.223 29.5781 132.973 28.8594C133.739 28.1406 134.731 27.7812 135.95 27.7812C137.184 27.7812 138.169 28.1406 138.903 28.8594C139.653 29.5781 140.028 30.4688 140.028 31.5312C140.028 32.5781 139.653 33.4609 138.903 34.1797C138.169 34.8984 137.184 35.2578 135.95 35.2578C134.731 35.2578 133.739 34.8984 132.973 34.1797C132.223 33.4609 131.848 32.5781 131.848 31.5312ZM161.094 29.7734C161.875 29.7734 162.555 29.625 163.133 29.3281C163.711 29.0312 164.156 28.6172 164.469 28.0859C164.797 27.5391 164.961 26.8828 164.961 26.1172H171.852C171.852 27.9609 171.375 29.5859 170.422 30.9922C169.484 32.3984 168.219 33.5 166.625 34.2969C165.031 35.0781 163.234 35.4688 161.234 35.4688C159.266 35.4688 157.547 35.1484 156.078 34.5078C154.609 33.8516 153.383 32.9375 152.398 31.7656C151.414 30.5938 150.672 29.2344 150.172 27.6875C149.688 26.125 149.445 24.4375 149.445 22.625V22.0156C149.445 20.2188 149.688 18.5391 150.172 16.9766C150.672 15.4141 151.414 14.0469 152.398 12.875C153.383 11.7031 154.602 10.7969 156.055 10.1562C157.523 9.5 159.242 9.17188 161.211 9.17188C163.289 9.17188 165.125 9.57031 166.719 10.3672C168.328 11.1641 169.586 12.3125 170.492 13.8125C171.398 15.2969 171.852 17.0859 171.852 19.1797H164.961C164.961 18.3672 164.812 17.6406 164.516 17C164.234 16.3438 163.797 15.8281 163.203 15.4531C162.625 15.0625 161.906 14.8672 161.047 14.8672C160.156 14.8672 159.422 15.0625 158.844 15.4531C158.281 15.8281 157.852 16.3516 157.555 17.0234C157.258 17.6953 157.055 18.4609 156.945 19.3203C156.836 20.1641 156.781 21.0625 156.781 22.0156V22.625C156.781 23.5938 156.836 24.5156 156.945 25.3906C157.055 26.25 157.258 27.0078 157.555 27.6641C157.867 28.3203 158.305 28.8359 158.867 29.2109C159.43 29.5859 160.172 29.7734 161.094 29.7734ZM179.23 22.5781V22.0859C179.23 20.2266 179.495 18.5156 180.027 16.9531C180.558 15.375 181.339 14.0078 182.37 12.8516C183.402 11.6953 184.667 10.7969 186.167 10.1562C187.667 9.5 189.386 9.17188 191.323 9.17188C193.292 9.17188 195.027 9.5 196.527 10.1562C198.042 10.7969 199.316 11.6953 200.347 12.8516C201.378 14.0078 202.159 15.375 202.691 16.9531C203.222 18.5156 203.488 20.2266 203.488 22.0859V22.5781C203.488 24.4219 203.222 26.1328 202.691 27.7109C202.159 29.2734 201.378 30.6406 200.347 31.8125C199.316 32.9688 198.05 33.8672 196.55 34.5078C195.05 35.1484 193.323 35.4688 191.37 35.4688C189.433 35.4688 187.706 35.1484 186.191 34.5078C184.675 33.8672 183.402 32.9688 182.37 31.8125C181.339 30.6406 180.558 29.2734 180.027 27.7109C179.495 26.1328 179.23 24.4219 179.23 22.5781ZM186.566 22.0859V22.5781C186.566 23.5781 186.644 24.5156 186.8 25.3906C186.972 26.2656 187.245 27.0312 187.62 27.6875C187.995 28.3438 188.488 28.8594 189.097 29.2344C189.722 29.5938 190.48 29.7734 191.37 29.7734C192.261 29.7734 193.011 29.5938 193.62 29.2344C194.23 28.8594 194.722 28.3438 195.097 27.6875C195.472 27.0312 195.738 26.2656 195.894 25.3906C196.066 24.5156 196.152 23.5781 196.152 22.5781V22.0859C196.152 21.1016 196.066 20.1797 195.894 19.3203C195.738 18.4453 195.472 17.6719 195.097 17C194.722 16.3281 194.222 15.8047 193.597 15.4297C192.988 15.0547 192.23 14.8672 191.323 14.8672C190.448 14.8672 189.706 15.0547 189.097 15.4297C188.488 15.8047 187.995 16.3281 187.62 17C187.245 17.6719 186.972 18.4453 186.8 19.3203C186.644 20.1797 186.566 21.1016 186.566 22.0859Z" fill="#2E5555"/>
</svg>
