<svg width="49" height="56" viewBox="0 0 49 56" fill="none" xmlns="http://www.w3.org/2000/svg">
<rect width="49" height="56" rx="9" fill="#ECFBFB"/>
<path d="M17.9375 27.5C21.3896 27.5 24.1875 24.7021 24.1875 21.25C24.1875 17.7979 21.3896 15 17.9375 15C14.4854 15 11.6875 17.7979 11.6875 21.25C11.6875 24.7021 14.4854 27.5 17.9375 27.5ZM22.3125 29.0625H21.4971C20.4131 29.5605 19.207 29.8438 17.9375 29.8438C16.668 29.8438 15.4668 29.5605 14.3779 29.0625H13.5625C9.93945 29.0625 7 32.002 7 35.625V37.6562C7 38.9502 8.0498 40 9.34375 40H26.5312C27.8252 40 28.875 38.9502 28.875 37.6562V35.625C28.875 32.002 25.9355 29.0625 22.3125 29.0625Z" fill="#315858"/>
<path d="M39.8352 21.718C38.5509 20.6234 36.6408 20.8203 35.4619 22.0367L35.0002 22.5125L34.5385 22.0367C33.3619 20.8203 31.4495 20.6234 30.1651 21.718C28.6933 22.9742 28.6159 25.2288 29.9331 26.5905L34.4682 31.2732C34.7611 31.5756 35.2369 31.5756 35.5298 31.2732L40.0649 26.5905C41.3844 25.2288 41.3071 22.9742 39.8352 21.718Z" fill="#2E5555"/>
</svg>
